<svg width="79" height="55" viewBox="0 0 79 55" fill="none" xmlns="http://www.w3.org/2000/svg">
<path d="M0.329483 27.0192H1.15319V19.6058H0.329483V16.9041H7.56164C8.97841 16.9041 10.0602 17.2116 10.807 17.8266C11.5539 18.4307 11.9273 19.4136 11.9273 20.7755C11.9273 22.1373 11.5539 23.1258 10.807 23.7408C10.0602 24.3449 8.97841 24.6469 7.56164 24.6469H5.76595V27.0192H7.34747V29.7209H0.329483V27.0192ZM6.32607 22.3076C6.96307 22.3076 7.28157 21.9561 7.28157 21.2532V20.6602C7.28157 20.2977 7.1992 20.0341 7.03446 19.8694C6.8807 19.6937 6.64457 19.6058 6.32607 19.6058H5.76595V22.3076H6.32607ZM18.6863 29.9516C16.6765 29.9516 15.1224 29.4244 14.0241 28.3701C12.9368 27.3157 12.3932 25.6299 12.3932 23.3125C12.3932 20.9951 12.9368 19.3093 14.0241 18.2549C15.1224 17.2006 16.6765 16.6734 18.6863 16.6734C20.6962 16.6734 22.2447 17.2006 23.332 18.2549C24.4303 19.3093 24.9794 20.9951 24.9794 23.3125C24.9794 25.6299 24.4303 27.3157 23.332 28.3701C22.2447 29.4244 20.6962 29.9516 18.6863 29.9516ZM18.6863 27.0192C19.0597 27.0192 19.3398 26.9203 19.5265 26.7227C19.7132 26.525 19.8066 26.2174 19.8066 25.8001V20.8249C19.8066 20.4076 19.7132 20.1 19.5265 19.9024C19.3398 19.7047 19.0597 19.6058 18.6863 19.6058C18.3129 19.6058 18.0328 19.7047 17.8461 19.9024C17.6594 20.1 17.5661 20.4076 17.5661 20.8249V25.8001C17.5661 26.2284 17.6594 26.5414 17.8461 26.7391C18.0328 26.9258 18.3129 27.0192 18.6863 27.0192ZM25.5394 29.7209V27.0192H26.3631V19.6058H25.5394V16.9041H31.7996V19.6058H30.9759V27.0192H31.7996V29.7209H25.5394ZM41.9464 16.9041H47.3499V19.6058H46.5262V29.7209H41.897L37.0701 22.2911V27.0192H37.8608V29.7209H32.4573V27.0192H33.281V19.6058H32.4573V16.9041H38.4045L42.7372 23.5102V19.6058H41.9464V16.9041ZM60.272 20.8908H57.4384V19.6058H56.3841V27.0192H57.5373V29.7209H50.6181V27.0192H51.7713V19.6058H50.717V20.8908H47.8834V16.9041H60.272V20.8908ZM0.329483 41.0192H1.15319V33.6058H0.329483V30.9041H7.89112C9.26396 30.9041 10.3348 31.1841 11.1036 31.7442C11.8724 32.3044 12.2568 33.1061 12.2568 34.1495C12.2568 34.7974 12.103 35.3466 11.7955 35.7969C11.488 36.2362 11.1255 36.5712 10.7082 36.8018C10.3018 37.0215 9.90646 37.1697 9.52206 37.2466V37.4113C10.3018 37.4882 11.0047 37.7353 11.6308 38.1527C12.2568 38.57 12.5698 39.3169 12.5698 40.3932C12.5698 41.5464 12.136 42.392 11.2683 42.9302C10.4007 43.4574 9.27495 43.7209 7.89112 43.7209H0.329483V41.0192ZM6.65556 36.3076C6.97406 36.3076 7.21019 36.2252 7.36395 36.0605C7.52869 35.8847 7.61106 35.6157 7.61106 35.2532V34.6602C7.61106 34.2977 7.52869 34.0341 7.36395 33.8694C7.21019 33.6937 6.97406 33.6058 6.65556 33.6058H5.76595V36.3076H6.65556ZM6.77088 41.0192C7.08938 41.0192 7.32551 40.9368 7.47926 40.7721C7.64401 40.5964 7.72638 40.3273 7.72638 39.9648V39.24C7.72638 38.8775 7.64401 38.614 7.47926 38.4492C7.32551 38.2735 7.08938 38.1856 6.77088 38.1856H5.76595V41.0192H6.77088ZM19.2647 43.9516C17.5404 43.9516 16.206 43.5727 15.2615 42.8149C14.328 42.0571 13.8612 40.827 13.8612 39.1247V33.6058H13.0375V30.9041H19.1329V33.6058H18.474V39.9648C18.474 40.3273 18.5508 40.5964 18.7046 40.7721C18.8693 40.9368 19.111 41.0192 19.4295 41.0192C19.748 41.0192 19.9841 40.9368 20.1378 40.7721C20.3026 40.5964 20.385 40.3273 20.385 39.9648V33.6058H19.726V30.9041H25.3766V33.6058H24.5529V39.1247C24.5529 40.827 24.0971 42.0571 23.1856 42.8149C22.274 43.5727 20.967 43.9516 19.2647 43.9516ZM25.9738 41.0192H26.7975V33.6058H25.9738V30.9041H33.5354C34.9522 30.9041 36.034 31.1951 36.7809 31.7772C37.5277 32.3593 37.9011 33.3038 37.9011 34.6107C37.9011 35.3466 37.7528 35.9836 37.4563 36.5217C37.1598 37.0599 36.7369 37.4333 36.1878 37.642L36.2043 37.8067C37.2586 37.9715 37.7858 38.6195 37.7858 39.7507V41.0192H38.5601V43.7209H33.3378V39.8495C33.3378 39.4212 33.2719 39.0972 33.1401 38.8775C33.0193 38.6579 32.8216 38.5096 32.547 38.4327C32.2834 38.3559 31.9045 38.3174 31.4103 38.3174V41.0192H32.4976V43.7209H25.9738V41.0192ZM32.2999 36.3076C32.6184 36.3076 32.8545 36.2252 33.0083 36.0605C33.173 35.8847 33.2554 35.6157 33.2554 35.2532V34.6602C33.2554 34.2977 33.173 34.0341 33.0083 33.8694C32.8545 33.6937 32.6184 33.6058 32.2999 33.6058H31.4103V36.3076H32.2999ZM51.5714 39.6024H50.7477V42.8972C50.2645 43.1718 49.5561 43.4189 48.6226 43.6386C47.7 43.8472 46.7006 43.9516 45.6243 43.9516C43.5705 43.9516 41.9615 43.4134 40.7973 42.3371C39.6332 41.2498 39.0511 39.575 39.0511 37.3125C39.0511 34.9951 39.6277 33.3093 40.7809 32.2549C41.945 31.2006 43.6034 30.6734 45.756 30.6734C46.7994 30.6734 47.7769 30.7832 48.6884 31.0029C49.6 31.2226 50.2864 31.4697 50.7477 31.7442V35.6816H46.6292V34.9073C46.6292 34.446 46.5303 34.1165 46.3326 33.9188C46.1459 33.7102 45.8439 33.6058 45.4266 33.6058C45.0092 33.6058 44.7017 33.7102 44.504 33.9188C44.3173 34.1165 44.224 34.446 44.224 34.9073V39.7177C44.224 40.179 44.3173 40.514 44.504 40.7227C44.7017 40.9203 45.0092 41.0192 45.4266 41.0192C45.8439 41.0192 46.1459 40.9203 46.3326 40.7227C46.5303 40.514 46.6292 40.179 46.6292 39.7177V39.6024H45.7396V37.1478H51.5714V39.6024ZM52.0364 43.7209V41.0192H52.8601V33.6058H52.0364V30.9041H63.1565V35.8793H59.4663V33.6058H57.4729V36.2087H58.9226V38.0868H57.4729V41.0192H59.4663V38.4163H63.1565V43.7209H52.0364ZM63.7807 41.0192H64.6044V33.6058H63.7807V30.9041H71.3423C72.7591 30.9041 73.8409 31.1951 74.5877 31.7772C75.3346 32.3593 75.708 33.3038 75.708 34.6107C75.708 35.3466 75.5597 35.9836 75.2632 36.5217C74.9666 37.0599 74.5438 37.4333 73.9947 37.642L74.0111 37.8067C75.0655 37.9715 75.5927 38.6195 75.5927 39.7507V41.0192H76.367V43.7209H71.1446V39.8495C71.1446 39.4212 71.0787 39.0972 70.947 38.8775C70.8261 38.6579 70.6285 38.5096 70.3539 38.4327C70.0903 38.3559 69.7114 38.3174 69.2172 38.3174V41.0192H70.3045V43.7209H63.7807V41.0192ZM70.1068 36.3076C70.4253 36.3076 70.6614 36.2252 70.8152 36.0605C70.9799 35.8847 71.0623 35.6157 71.0623 35.2532V34.6602C71.0623 34.2977 70.9799 34.0341 70.8152 33.8694C70.6614 33.6937 70.4253 33.6058 70.1068 33.6058H69.2172V36.3076H70.1068Z" fill="#E3F26D"/>
<path d="M47.7634 51.4499C43.6411 53.7773 36.5648 54.4419 26.7797 54.4419C16.9946 54.4419 9.91836 53.7773 5.79377 51.4476C3.32083 50.0548 2.06848 48.1561 2.06848 46.7928C2.06848 46.017 2.47913 45.5747 3.40024 45.5747H50.1592C51.0803 45.5747 51.4909 46.017 51.4909 46.7928C51.4909 48.1539 50.2386 50.0548 47.7634 51.4499ZM50.1592 15.3435H3.40024C2.47913 15.3435 2.06848 14.8694 2.06848 14.0143C2.06848 8.94662 9.69602 0 26.7797 0C43.7046 0 51.4909 8.94662 51.4909 14.0143C51.4909 14.8694 51.0803 15.3435 50.1592 15.3435Z" fill="#FF9E0D"/>
</svg>
