<svg xmlns="http://www.w3.org/2000/svg" width="17" height="17" viewBox="0 0 17 17" fill="none">
  <path d="M15.68 1.20468C15.4065 0.917057 15.0782 0.687072 14.7144 0.528274C14.3507 0.369476 13.9588 0.285075 13.5619 0.280043C13.165 0.275011 12.7712 0.349449 12.4035 0.498974C12.0358 0.648498 11.7018 0.870084 11.421 1.15068L2.04605 10.5257C1.71837 10.8533 1.49081 11.2674 1.39005 11.7197L0.513049 15.6697C0.494749 15.7518 0.49745 15.8371 0.520902 15.9179C0.544354 15.9987 0.5878 16.0722 0.647218 16.1317C0.706637 16.1913 0.780109 16.2348 0.860835 16.2584C0.941561 16.282 1.02693 16.2848 1.10905 16.2667L5.03605 15.3937C5.50349 15.2896 5.93156 15.0544 6.27005 14.7157L15.628 5.35768C16.1766 4.80892 16.489 4.06759 16.4987 3.29176C16.5084 2.51593 16.2147 1.767 15.68 1.20468ZM12.128 1.85768C12.311 1.67213 12.5288 1.5246 12.769 1.4236C13.0091 1.3226 13.2669 1.27012 13.5275 1.26918C13.788 1.26825 14.0462 1.31888 14.2871 1.41816C14.528 1.51743 14.7469 1.6634 14.9311 1.84763C15.1153 2.03187 15.2613 2.25075 15.3606 2.49164C15.4599 2.73254 15.5105 2.9907 15.5095 3.25125C15.5086 3.5118 15.4561 3.76959 15.3551 4.00977C15.2541 4.24995 15.1066 4.46777 14.9211 4.65068L14.25 5.32168L11.457 2.52968L12.128 1.85768ZM10.75 3.23768L13.543 6.02968L5.56305 14.0097C5.359 14.214 5.1009 14.3559 4.81905 14.4187L1.65905 15.1207L2.36705 11.9377C2.42605 11.6707 2.56005 11.4267 2.75305 11.2337L10.75 3.23768Z" fill="black"/>
</svg>