<svg xmlns="http://www.w3.org/2000/svg" width="20" height="20" viewBox="0 0 20 20" fill="none">
  <path d="M2.21664 11.6167C1.78788 11.6167 1.37667 11.4463 1.07349 11.1432C0.770303 10.84 0.599976 10.4288 0.599976 10C0.599976 9.57123 0.770303 9.16003 1.07349 8.85684C1.37667 8.55366 1.78788 8.38333 2.21664 8.38333H18.3833C18.8121 8.38333 19.2233 8.55366 19.5265 8.85684C19.8297 9.16003 20 9.57123 20 10C20 10.4288 19.8297 10.84 19.5265 11.1432C19.2233 11.4463 18.8121 11.6167 18.3833 11.6167H2.21664Z" fill="white"/>
  <path d="M8.68332 1.91666C8.68332 1.48789 8.85365 1.07668 9.15683 0.773499C9.46001 0.470315 9.87122 0.299988 10.3 0.299988C10.7288 0.299988 11.14 0.470315 11.4431 0.773499C11.7463 1.07668 11.9167 1.48789 11.9167 1.91666V18.0833C11.9167 18.5121 11.7463 18.9233 11.4431 19.2265C11.14 19.5297 10.7288 19.7 10.3 19.7C9.87122 19.7 9.46001 19.5297 9.15683 19.2265C8.85365 18.9233 8.68332 18.5121 8.68332 18.0833V1.91666Z" fill="white"/>
</svg>