<svg xmlns="http://www.w3.org/2000/svg" width="17" height="17" viewBox="0 0 17 17" fill="none">
  <path d="M6.9 3.01085H10.1C10.1 2.59686 9.93143 2.19981 9.63137 1.90708C9.33131 1.61434 8.92435 1.44988 8.5 1.44988C8.07565 1.44988 7.66869 1.61434 7.36863 1.90708C7.06857 2.19981 6.9 2.59686 6.9 3.01085ZM5.7 3.01085C5.7 2.65212 5.77242 2.2969 5.91314 1.96547C6.05385 1.63405 6.2601 1.33291 6.5201 1.07924C6.78011 0.82558 7.08878 0.624364 7.42849 0.487083C7.7682 0.349802 8.1323 0.279144 8.5 0.279144C8.8677 0.279144 9.2318 0.349802 9.57151 0.487083C9.91123 0.624364 10.2199 0.82558 10.4799 1.07924C10.7399 1.33291 10.9461 1.63405 11.0869 1.96547C11.2276 2.2969 11.3 2.65212 11.3 3.01085H15.9C16.0591 3.01085 16.2117 3.07252 16.3243 3.1823C16.4368 3.29208 16.5 3.44097 16.5 3.59622C16.5 3.75147 16.4368 3.90036 16.3243 4.01013C16.2117 4.11991 16.0591 4.18158 15.9 4.18158H14.844L13.908 13.6341C13.8362 14.3583 13.4904 15.0306 12.9381 15.5196C12.3859 16.0086 11.6666 16.2794 10.9208 16.2791H6.0792C5.33349 16.2792 4.61448 16.0083 4.06236 15.5193C3.51024 15.0303 3.16459 14.3582 3.0928 13.6341L2.156 4.18158H1.1C0.94087 4.18158 0.788258 4.11991 0.675736 4.01013C0.563214 3.90036 0.5 3.75147 0.5 3.59622C0.5 3.44097 0.563214 3.29208 0.675736 3.1823C0.788258 3.07252 0.94087 3.01085 1.1 3.01085H5.7ZM7.3 6.71817C7.3 6.56292 7.23679 6.41403 7.12426 6.30425C7.01174 6.19448 6.85913 6.1328 6.7 6.1328C6.54087 6.1328 6.38826 6.19448 6.27574 6.30425C6.16321 6.41403 6.1 6.56292 6.1 6.71817V12.5718C6.1 12.7271 6.16321 12.876 6.27574 12.9857C6.38826 13.0955 6.54087 13.1572 6.7 13.1572C6.85913 13.1572 7.01174 13.0955 7.12426 12.9857C7.23679 12.876 7.3 12.7271 7.3 12.5718V6.71817ZM10.3 6.1328C10.4591 6.1328 10.6117 6.19448 10.7243 6.30425C10.8368 6.41403 10.9 6.56292 10.9 6.71817V12.5718C10.9 12.7271 10.8368 12.876 10.7243 12.9857C10.6117 13.0955 10.4591 13.1572 10.3 13.1572C10.1409 13.1572 9.98826 13.0955 9.87574 12.9857C9.76321 12.876 9.7 12.7271 9.7 12.5718V6.71817C9.7 6.56292 9.76321 6.41403 9.87574 6.30425C9.98826 6.19448 10.1409 6.1328 10.3 6.1328ZM4.2872 13.5217C4.33035 13.9561 4.5378 14.3593 4.86909 14.6527C5.20039 14.946 5.6318 15.1085 6.0792 15.1084H10.9208C11.3682 15.1085 11.7996 14.946 12.1309 14.6527C12.4622 14.3593 12.6697 13.9561 12.7128 13.5217L13.6392 4.18158H3.3608L4.2872 13.5217Z" fill="#FF3232"/>
</svg>