<svg width="43" height="43" viewBox="0 0 43 43" fill="none" xmlns="http://www.w3.org/2000/svg">
<path d="M12.8412 17.8846C12.8412 18.1938 12.7819 18.484 12.6633 18.755C12.5489 19.0261 12.3901 19.2633 12.1868 19.4666C11.9835 19.6699 11.7442 19.8309 11.4688 19.9495C11.1978 20.0638 10.9076 20.121 10.5984 20.121H8.53356V23.6218H7.71397V14.5109H10.5984C10.9076 14.5109 11.1978 14.5702 11.4688 14.6888C11.7442 14.8032 11.9835 14.962 12.1868 15.1654C12.3901 15.3687 12.5489 15.608 12.6633 15.8833C12.7819 16.1544 12.8412 16.4445 12.8412 16.7537V17.8846ZM12.0216 16.7537C12.0216 16.5504 11.9835 16.3619 11.9072 16.1883C11.831 16.0104 11.7251 15.8558 11.5896 15.7245C11.4583 15.5889 11.3037 15.483 11.1258 15.4068C10.9521 15.3305 10.7636 15.2924 10.5603 15.2924H8.53356V19.3396H10.5603C10.7636 19.3396 10.9521 19.3014 11.1258 19.2252C11.3037 19.149 11.4583 19.0452 11.5896 18.9139C11.7251 18.7826 11.831 18.6301 11.9072 18.4564C11.9835 18.2785 12.0216 18.0879 12.0216 17.8846V16.7537ZM19.4043 21.5124C19.4043 21.8216 19.345 22.1118 19.2264 22.3828C19.112 22.6539 18.9532 22.8911 18.7499 23.0944C18.5466 23.2977 18.3094 23.4587 18.0383 23.5773C17.7672 23.6917 17.4771 23.7488 17.1679 23.7488H16.5198C16.2106 23.7488 15.9184 23.6917 15.643 23.5773C15.372 23.4587 15.1348 23.2977 14.9315 23.0944C14.7282 22.8911 14.5672 22.6539 14.4486 22.3828C14.3342 22.1118 14.2771 21.8216 14.2771 21.5124V16.6203C14.2771 16.3111 14.3342 16.0209 14.4486 15.7499C14.5672 15.4788 14.7282 15.2416 14.9315 15.0383C15.1348 14.835 15.372 14.6761 15.643 14.5618C15.9184 14.4432 16.2106 14.3839 16.5198 14.3839H17.1679C17.4771 14.3839 17.7672 14.4432 18.0383 14.5618C18.3094 14.6761 18.5466 14.835 18.7499 15.0383C18.9532 15.2416 19.112 15.4788 19.2264 15.7499C19.345 16.0209 19.4043 16.3111 19.4043 16.6203V21.5124ZM18.5847 16.6203C18.5847 16.417 18.5466 16.2285 18.4703 16.0548C18.3941 15.8769 18.2903 15.7223 18.159 15.591C18.0277 15.4597 17.8731 15.356 17.6952 15.2797C17.5215 15.2035 17.3331 15.1654 17.1297 15.1654H16.5579C16.3546 15.1654 16.164 15.2035 15.9861 15.2797C15.8125 15.356 15.6579 15.4597 15.5223 15.591C15.391 15.7223 15.2873 15.8769 15.211 16.0548C15.1348 16.2285 15.0967 16.417 15.0967 16.6203V21.5124C15.0967 21.7157 15.1348 21.9063 15.211 22.0842C15.2873 22.2579 15.391 22.4125 15.5223 22.548C15.6579 22.6793 15.8125 22.7831 15.9861 22.8594C16.164 22.9356 16.3546 22.9737 16.5579 22.9737H17.1297C17.3331 22.9737 17.5215 22.9356 17.6952 22.8594C17.8731 22.7831 18.0277 22.6793 18.159 22.548C18.2903 22.4125 18.3941 22.2579 18.4703 22.0842C18.5466 21.9063 18.5847 21.7157 18.5847 21.5124V16.6203ZM21.3611 23.6218V14.5109H22.1807V23.6218H21.3611ZM28.9662 23.6218L25.1668 16.9888L25.0906 16.5949V23.6218H24.271V14.5109H24.6967L28.496 21.1503L28.5786 21.5378V14.5109H29.3982V23.6218H28.9662ZM33.6995 15.2924V23.6218H32.8799V15.2924H30.707V14.5109H35.8724V15.2924H33.6995ZM7.12946 32.3854C7.12946 32.6946 7.07016 32.9847 6.95156 33.2558C6.8372 33.5269 6.67836 33.7641 6.47505 33.9674C6.27174 34.1707 6.03243 34.3316 5.75712 34.4502C5.48604 34.5646 5.1959 34.6218 4.8867 34.6218H2.00224V25.5109H4.8867C5.1959 25.5109 5.48604 25.5702 5.75712 25.6888C6.03243 25.8032 6.27174 25.962 6.47505 26.1654C6.67836 26.3687 6.8372 26.608 6.95156 26.8833C7.07016 27.1544 7.12946 27.4445 7.12946 27.7537V27.8427C7.12946 28.0587 7.09981 28.2662 7.04051 28.4653C6.98544 28.6601 6.90497 28.8423 6.79908 29.0117C6.69319 29.1811 6.56824 29.3357 6.42423 29.4755C6.28021 29.611 6.11926 29.7254 5.94136 29.8186C6.11926 29.9118 6.28021 30.0282 6.42423 30.168C6.56824 30.3036 6.69319 30.4582 6.79908 30.6318C6.90497 30.8012 6.98544 30.9855 7.04051 31.1846C7.09981 31.3794 7.12946 31.5848 7.12946 31.8008V32.3854ZM6.30986 31.6674C6.30986 31.4641 6.27174 31.2756 6.1955 31.102C6.11926 30.9241 6.01337 30.7695 5.87783 30.6382C5.74653 30.5069 5.59193 30.4031 5.41403 30.3268C5.24037 30.2506 5.05188 30.2125 4.84858 30.2125H2.82183V33.8403H4.84858C5.05188 33.8403 5.24037 33.8022 5.41403 33.7259C5.59193 33.6497 5.74653 33.5459 5.87783 33.4146C6.01337 33.2833 6.11926 33.1308 6.1955 32.9572C6.27174 32.7793 6.30986 32.5887 6.30986 32.3854V31.6674ZM6.30986 27.7537C6.30986 27.5504 6.27174 27.3619 6.1955 27.1883C6.11926 27.0104 6.01337 26.8558 5.87783 26.7245C5.74653 26.5889 5.59193 26.483 5.41403 26.4068C5.24037 26.3305 5.05188 26.2924 4.84858 26.2924H2.82183V29.431H4.84858C5.05188 29.431 5.24037 29.3929 5.41403 29.3167C5.59193 29.2404 5.74653 29.1366 5.87783 29.0053C6.01337 28.8698 6.11926 28.7152 6.1955 28.5415C6.27174 28.3636 6.30986 28.173 6.30986 27.9697V27.7537ZM13.6925 32.5124C13.6925 32.8216 13.6332 33.1118 13.5147 33.3828C13.4003 33.6539 13.2415 33.8911 13.0381 34.0944C12.8348 34.2977 12.5976 34.4587 12.3266 34.5773C12.0555 34.6917 11.7653 34.7488 11.4561 34.7488H10.8081C10.4989 34.7488 10.2066 34.6917 9.93132 34.5773C9.66024 34.4587 9.42304 34.2977 9.21973 34.0944C9.01642 33.8911 8.85547 33.6539 8.73687 33.3828C8.62251 33.1118 8.56533 32.8216 8.56533 32.5124V25.5109H9.38492V32.5124C9.38492 32.7157 9.42304 32.9063 9.49928 33.0842C9.57553 33.2579 9.6793 33.4125 9.8106 33.548C9.94614 33.6793 10.1007 33.7831 10.2744 33.8594C10.4523 33.9356 10.6429 33.9737 10.8462 33.9737H11.418C11.6213 33.9737 11.8098 33.9356 11.9835 33.8594C12.1614 33.7831 12.316 33.6793 12.4473 33.548C12.5786 33.4125 12.6824 33.2579 12.7586 33.0842C12.8348 32.9063 12.873 32.7157 12.873 32.5124V25.5109H13.6925V32.5124ZM19.9316 34.6218L17.4601 30.7335H16.3356V34.6218H15.516V25.5109H18.4068C18.716 25.5109 19.0061 25.5702 19.2772 25.6888C19.5483 25.8032 19.7855 25.962 19.9888 26.1654C20.1921 26.3687 20.3509 26.608 20.4653 26.8833C20.5839 27.1544 20.6432 27.4445 20.6432 27.7537V28.4907C20.6432 28.7999 20.5839 29.0922 20.4653 29.3675C20.3509 29.6386 20.1921 29.8758 19.9888 30.0791C19.7855 30.2824 19.5483 30.4433 19.2772 30.5619C19.0061 30.6763 18.716 30.7335 18.4068 30.7335L20.8783 34.6218H19.9316ZM19.8236 27.7537C19.8236 27.5504 19.7855 27.3619 19.7092 27.1883C19.633 27.0104 19.5292 26.8558 19.3979 26.7245C19.2666 26.5889 19.112 26.483 18.9341 26.4068C18.7605 26.3305 18.572 26.2924 18.3687 26.2924H16.3356V29.952H18.3687C18.572 29.952 18.7605 29.9139 18.9341 29.8376C19.112 29.7614 19.2666 29.6576 19.3979 29.5263C19.5292 29.3908 19.633 29.2362 19.7092 29.0625C19.7855 28.8846 19.8236 28.694 19.8236 28.4907V27.7537ZM27.4414 34.6218H27.1809L26.7044 33.8911C26.5053 34.1537 26.2639 34.3634 25.9801 34.5201C25.6963 34.6726 25.3807 34.7488 25.0334 34.7488H24.5569C24.2477 34.7488 23.9554 34.6917 23.6801 34.5773C23.4091 34.4587 23.1719 34.2977 22.9686 34.0944C22.7652 33.8911 22.6043 33.6539 22.4857 33.3828C22.3713 33.1118 22.3141 32.8216 22.3141 32.5124V27.6203C22.3141 27.3111 22.3713 27.0209 22.4857 26.7499C22.6043 26.4788 22.7652 26.2416 22.9686 26.0383C23.1719 25.835 23.4091 25.6761 23.6801 25.5618C23.9554 25.4432 24.2477 25.3839 24.5569 25.3839H25.205C25.5142 25.3839 25.8043 25.4432 26.0754 25.5618C26.3465 25.6761 26.5837 25.835 26.787 26.0383C26.9903 26.2416 27.1491 26.4788 27.2635 26.7499C27.3821 27.0209 27.4414 27.3111 27.4414 27.6203V27.9888L26.6218 28.1159V27.6203C26.6218 27.417 26.5837 27.2285 26.5074 27.0548C26.4312 26.8769 26.3274 26.7223 26.1961 26.591C26.0648 26.4597 25.9102 26.356 25.7323 26.2797C25.5586 26.2035 25.3701 26.1654 25.1668 26.1654H24.595C24.3917 26.1654 24.2011 26.2035 24.0232 26.2797C23.8496 26.356 23.695 26.4597 23.5594 26.591C23.4281 26.7223 23.3243 26.8769 23.2481 27.0548C23.1719 27.2285 23.1337 27.417 23.1337 27.6203V32.5124C23.1337 32.7157 23.1719 32.9063 23.2481 33.0842C23.3243 33.2579 23.4281 33.4125 23.5594 33.548C23.695 33.6793 23.8496 33.7831 24.0232 33.8594C24.2011 33.9356 24.3917 33.9737 24.595 33.9737H25.1668C25.3701 33.9737 25.5586 33.9356 25.7323 33.8594C25.9102 33.7831 26.0648 33.6793 26.1961 33.548C26.3274 33.4125 26.4312 33.2579 26.5074 33.0842C26.5837 32.9063 26.6218 32.7157 26.6218 32.5124V30.6128H25.1668V29.8313H27.4414V34.6218ZM29.3982 34.6218V25.5109H34.5254V26.2924H30.2178V29.6788H33.7058V30.4603H30.2178V33.8403H34.5254V34.6218H29.3982ZM40.3769 34.6218L37.9055 30.7335H36.7809V34.6218H35.9613V25.5109H38.8521C39.1613 25.5109 39.4515 25.5702 39.7225 25.6888C39.9936 25.8032 40.2308 25.962 40.4341 26.1654C40.6374 26.3687 40.7963 26.608 40.9106 26.8833C41.0292 27.1544 41.0885 27.4445 41.0885 27.7537V28.4907C41.0885 28.7999 41.0292 29.0922 40.9106 29.3675C40.7963 29.6386 40.6374 29.8758 40.4341 30.0791C40.2308 30.2824 39.9936 30.4433 39.7225 30.5619C39.4515 30.6763 39.1613 30.7335 38.8521 30.7335L41.3236 34.6218H40.3769ZM40.2689 27.7537C40.2689 27.5504 40.2308 27.3619 40.1546 27.1883C40.0783 27.0104 39.9746 26.8558 39.8433 26.7245C39.7119 26.5889 39.5573 26.483 39.3795 26.4068C39.2058 26.3305 39.0173 26.2924 38.814 26.2924H36.7809V29.952H38.814C39.0173 29.952 39.2058 29.9139 39.3795 29.8376C39.5573 29.7614 39.7119 29.6576 39.8433 29.5263C39.9746 29.3908 40.0783 29.2362 40.1546 29.0625C40.2308 28.8846 40.2689 28.694 40.2689 28.4907V27.7537Z" fill="#EBEBEB"/>
<path d="M37.725 40.6368C34.4691 42.4751 28.8801 43 21.1515 43C13.4229 43 7.83382 42.4751 4.57608 40.635C2.62287 39.5349 1.63373 38.0353 1.63373 36.9585C1.63373 36.3458 1.95807 35.9964 2.68559 35.9964H39.6173C40.3449 35.9964 40.6692 36.3458 40.6692 36.9585C40.6692 38.0335 39.68 39.5349 37.725 40.6368ZM39.6173 12.1189H2.68559C1.95807 12.1189 1.63373 11.7444 1.63373 11.0689C1.63373 7.06636 7.65821 3.05176e-05 21.1515 3.05176e-05C34.5193 3.05176e-05 40.6692 7.06636 40.6692 11.0689C40.6692 11.7444 40.3449 12.1189 39.6173 12.1189Z" fill="#FF9E0D"/>
</svg>
